<?xml version="1.0"?>
<svg xmlns="http://www.w3.org/2000/svg" xmlns:xlink="http://www.w3.org/1999/xlink" version="1.1" id="Capa_1" x="0px" y="0px" viewBox="0 0 406.7 406.7" style="enable-background:new 0 0 406.7 406.7;" xml:space="preserve" width="512px" height="512px" class=""><g><path style="fill:#004D7C" d="M341.538,170.9c-14.5,20.2-70.8,35.2-138.1,35.2s-123.6-15-138.1-35.2c-2.1-3-3.4-6-3.5-9.2l0.5-5.1  c6.3-23.2,67.1-41.3,141.1-41.3s134.7,18.1,141.1,41.3l0.5,5.1C344.838,164.8,343.638,167.9,341.538,170.9z" data-original="#ED664C" class="" data-old_color="#ED664C"/><path style="fill:#EAD342" d="M341.538,170.9l-33.9,189.1c-1.6,8.7-7.4,16-15.7,19.3c-28.3,11.6-58.4,17.4-88.6,17.4  s-60.2-5.8-88.6-17.4c-8.2-3.3-14.1-10.7-15.7-19.3l-33.9-189.1c14.5,20.2,70.8,35.2,138.1,35.2S327.038,191,341.538,170.9z" data-original="#FDC75B" class="active-path" data-old_color="#FDC75B"/><path d="M56.038,175.3l33.4,186.4c2.2,12.2,10.3,22.2,21.7,26.8c29.3,12.1,60.4,18.2,92.4,18.2s63-6.1,92.3-18.2  c11.4-4.6,19.6-14.7,21.7-26.9l33.3-186.3c3.1-2,5-5.6,4.6-9.5l-0.4-4c0-0.5,0-0.9,0-1.1c0-1.9-0.2-3.8-0.7-5.7l-2-20.1  c-3.7-37-20.9-71.1-48.5-96.2c-27.6-25-63.3-38.7-100.5-38.7s-72.9,13.8-100.5,38.7c-27.6,25-44.8,59.1-48.5,96.2l-2,20  c-0.5,1.9-0.7,3.9-0.7,5.8c0,0.3,0,0.7,0,1.2l-0.4,4C50.938,169.7,52.938,173.3,56.038,175.3z M297.838,358.2  c-1,5.4-4.5,9.8-9.6,11.9c-26.9,11.1-55.4,16.7-84.8,16.7s-57.8-5.6-84.8-16.7c-5-2-8.6-6.5-9.6-11.8l-29.4-164.1  c30.1,15,79.5,21.9,123.7,21.9s93.7-6.9,123.7-21.9L297.838,358.2z M116.338,53.5c23.9-21.6,54.8-33.6,87.1-33.6  c32.2,0,63.2,11.9,87.1,33.5c22.1,20.1,36.5,46.8,41.1,76c-29.2-16.5-81-24.3-128.2-24.3c-47.1,0-98.9,7.7-128.2,24.3  C79.838,100.2,94.338,73.5,116.338,53.5z M72.138,158.7c4.9-13.9,53.6-33.5,131.3-33.5c77.5,0,126.2,19.5,131.2,33.4l0.3,3  c-0.1,0.6-0.3,1.3-0.7,2c-0.7,0.7-1.2,1.5-1.6,2.4c-12.2,14.8-60.8,30.1-129.2,30.1s-117-15.3-129.2-30.1c-0.4-0.9-1-1.7-1.6-2.4  c-0.4-0.7-0.6-1.4-0.7-2.1L72.138,158.7z" data-original="#000000" class="" style="fill:#1D79AB" data-old_color="#000000"/></g> </svg>
